<svg xmlns="http://www.w3.org/2000/svg" width="950" height="550" viewBox="0 0 950 550">
  <!-- Estilos CSS internos -->
  <style>
    .titulo { font-family: sans-serif; font-size: 16px; font-weight: bold; fill: #111111; }
    .eje-titulo { font-family: sans-serif; font-size: 12px; font-weight: bold; fill: #333333; }
    .perfil-linea { fill: url(#gradiente-terreno); stroke: #0055ff; stroke-width: 3; }
  </style>

  <!-- Gradiente para el relleno de la altimetría -->
  <defs>
    <linearGradient id="gradiente-terreno" x1="0%" y1="0%" x2="0%" y2="100%">
      <stop offset="0%" stop-color="#0055ff" stop-opacity="0.45" />
      <stop offset="100%" stop-color="#0055ff" stop-opacity="0.05" />
    </linearGradient>
  </defs>

  <!-- Fondo -->
  <rect width="100%" height="100%" fill="#fafafa"/>

  <!-- Título de la ruta -->
  <text x="90" y="35" class="titulo">Ruta de los Volcanes en Timanfaya</text>

  <!-- Cuadrícula y Escalas -->
  <line x1="90" y1="400.00" x2="890" y2="400.00" stroke="#e0e0e0" stroke-width="1" stroke-dasharray="4,4"/>
  <text x="80" y="404.00" font-family="sans-serif" font-size="11" text-anchor="end" fill="#555555">232 m</text>
  <line x1="90" y1="332.00" x2="890" y2="332.00" stroke="#e0e0e0" stroke-width="1" stroke-dasharray="4,4"/>
  <text x="80" y="336.00" font-family="sans-serif" font-size="11" text-anchor="end" fill="#555555">263 m</text>
  <line x1="90" y1="264.00" x2="890" y2="264.00" stroke="#e0e0e0" stroke-width="1" stroke-dasharray="4,4"/>
  <text x="80" y="268.00" font-family="sans-serif" font-size="11" text-anchor="end" fill="#555555">294 m</text>
  <line x1="90" y1="196.00" x2="890" y2="196.00" stroke="#e0e0e0" stroke-width="1" stroke-dasharray="4,4"/>
  <text x="80" y="200.00" font-family="sans-serif" font-size="11" text-anchor="end" fill="#555555">325 m</text>
  <line x1="90" y1="128.00" x2="890" y2="128.00" stroke="#e0e0e0" stroke-width="1" stroke-dasharray="4,4"/>
  <text x="80" y="132.00" font-family="sans-serif" font-size="11" text-anchor="end" fill="#555555">356 m</text>
  <line x1="90" y1="60.00" x2="890" y2="60.00" stroke="#e0e0e0" stroke-width="1" stroke-dasharray="4,4"/>
  <text x="80" y="64.00" font-family="sans-serif" font-size="11" text-anchor="end" fill="#555555">387 m</text>
  <line x1="90.00" y1="60" x2="90.00" y2="400" stroke="#e0e0e0" stroke-width="1" stroke-dasharray="4,4"/>
  <text x="90.00" y="420" font-family="sans-serif" font-size="11" text-anchor="middle" fill="#555555">0.00 km</text>
  <line x1="250.00" y1="60" x2="250.00" y2="400" stroke="#e0e0e0" stroke-width="1" stroke-dasharray="4,4"/>
  <text x="250.00" y="420" font-family="sans-serif" font-size="11" text-anchor="middle" fill="#555555">1.56 km</text>
  <line x1="410.00" y1="60" x2="410.00" y2="400" stroke="#e0e0e0" stroke-width="1" stroke-dasharray="4,4"/>
  <text x="410.00" y="420" font-family="sans-serif" font-size="11" text-anchor="middle" fill="#555555">3.12 km</text>
  <line x1="570.00" y1="60" x2="570.00" y2="400" stroke="#e0e0e0" stroke-width="1" stroke-dasharray="4,4"/>
  <text x="570.00" y="420" font-family="sans-serif" font-size="11" text-anchor="middle" fill="#555555">4.68 km</text>
  <line x1="730.00" y1="60" x2="730.00" y2="400" stroke="#e0e0e0" stroke-width="1" stroke-dasharray="4,4"/>
  <text x="730.00" y="420" font-family="sans-serif" font-size="11" text-anchor="middle" fill="#555555">6.24 km</text>
  <line x1="890.00" y1="60" x2="890.00" y2="400" stroke="#e0e0e0" stroke-width="1" stroke-dasharray="4,4"/>
  <text x="890.00" y="420" font-family="sans-serif" font-size="11" text-anchor="middle" fill="#555555">7.80 km</text>

  <!-- Ejes -->
  <line x1="90" y1="60" x2="90" y2="400" stroke="#333333" stroke-width="2"/>
  <line x1="90" y1="400" x2="890" y2="400" stroke="#333333" stroke-width="2"/>

  <!-- Título de Ejes -->
  <text x="40" y="45" class="eje-titulo" transform="rotate(-90, 40, 45)" text-anchor="middle">Altitud (metros)</text>
  <text x="490.0" y="445" class="eje-titulo" text-anchor="middle">Distancia Horizontal (kilómetros)</text>

  <!-- Polilínea Cerrada (Perfil de Altimetría del Terreno) -->
  <polygon points="90,400 90.00,130.70 106.20,182.52 112.18,187.96 116.81,188.25 119.39,194.65 121.80,196.88 125.13,211.63 128.39,222.14 132.08,236.45 135.79,239.47 140.93,243.43 149.56,234.69 157.91,228.74 165.47,236.56 170.70,242.18 177.38,245.31 196.26,261.87 205.52,254.03 211.90,246.30 217.51,246.96 228.09,257.81 242.11,280.10 256.33,299.83 268.44,306.53 281.81,317.50 290.57,327.16 298.43,335.25 306.23,340.29 309.58,335.07 313.02,330.71 316.35,327.85 322.53,327.78 329.96,339.58 332.70,343.92 335.91,346.98 343.47,349.03 348.19,353.30 351.73,357.93 356.07,359.40 358.72,360.77 372.05,341.04 378.06,332.80 382.37,333.20 388.65,325.03 390.35,323.99 392.38,320.40 394.40,317.43 399.67,306.20 409.62,305.45 414.99,304.11 422.04,305.67 427.75,307.25 432.52,295.05 437.20,288.65 441.24,275.89 444.33,277.85 447.48,279.53 451.27,284.33 455.04,288.73 466.29,311.02 479.63,328.13 486.33,324.15 494.40,313.11 500.36,307.41 504.96,303.67 506.79,302.67 510.15,303.67 514.15,301.24 517.88,292.94 525.27,271.58 529.62,255.33 534.83,247.82 538.28,245.64 544.16,229.58 549.50,218.09 557.15,193.18 562.13,187.52 564.21,187.83 568.29,199.10 571.64,205.51 577.72,214.98 582.54,221.63 586.71,222.51 588.24,222.25 591.69,229.05 594.38,234.84 596.24,241.12 598.72,251.34 605.79,261.07 611.33,256.96 613.71,258.92 619.67,265.83 624.29,270.61 628.63,267.79 633.79,262.11 643.95,236.14 651.72,204.21 657.16,193.55 662.86,175.98 669.12,163.65 679.06,174.28 682.75,177.87 685.48,175.54 689.58,170.78 695.62,165.94 702.82,148.56 709.84,141.36 714.14,141.10 719.48,137.53 722.62,136.40 725.62,133.94 731.57,134.40 742.05,118.59 749.78,115.24 754.63,128.26 762.97,132.90 771.92,119.76 786.15,99.23 794.41,126.67 799.71,141.16 822.27,188.55 830.64,194.35 839.84,203.46 848.16,205.73 855.14,197.41 861.40,193.40 863.32,197.72 865.85,196.00 869.74,183.84 872.55,188.49 876.10,190.76 879.49,182.78 883.76,172.24 890.00,158.29 890.00,400 90,400" class="perfil-linea" />

  <!-- Hitos, Marcadores y Etiquetas -->
  <circle cx="90.00" cy="130.70" r="3" fill="#0055ff"/>
  <circle cx="106.20" cy="182.52" r="3" fill="#0055ff"/>
  <circle cx="112.18" cy="187.96" r="3" fill="#0055ff"/>
  <circle cx="116.81" cy="188.25" r="3" fill="#0055ff"/>
  <circle cx="119.39" cy="194.65" r="3" fill="#0055ff"/>
  <circle cx="121.80" cy="196.88" r="3" fill="#0055ff"/>
  <circle cx="125.13" cy="211.63" r="3" fill="#0055ff"/>
  <circle cx="128.39" cy="222.14" r="3" fill="#0055ff"/>
  <circle cx="132.08" cy="236.45" r="3" fill="#0055ff"/>
  <circle cx="135.79" cy="239.47" r="3" fill="#0055ff"/>
  <circle cx="140.93" cy="243.43" r="3" fill="#0055ff"/>
  <circle cx="149.56" cy="234.69" r="3" fill="#0055ff"/>
  <circle cx="157.91" cy="228.74" r="3" fill="#0055ff"/>
  <circle cx="165.47" cy="236.56" r="3" fill="#0055ff"/>
  <circle cx="170.70" cy="242.18" r="3" fill="#0055ff"/>
  <circle cx="177.38" cy="245.31" r="3" fill="#0055ff"/>
  <line x1="177.38" y1="245.31" x2="177.38" y2="400" stroke="#ff6600" stroke-width="1" stroke-dasharray="2,2"/>
  <circle cx="177.38" cy="245.31" r="5" fill="#ff6600" stroke="#ffffff" stroke-width="1.5"/>
  <text x="177.38" y="435" transform="rotate(-90, 177.38, 435)" font-family="sans-serif" font-size="10" font-weight="bold" fill="#333333" text-anchor="end">El Manto De La Virgen</text>
  <text x="177.38" y="237.31" font-family="sans-serif" font-size="9" fill="#ff6600" text-anchor="middle" font-weight="bold">303m</text>
  <circle cx="196.26" cy="261.87" r="3" fill="#0055ff"/>
  <circle cx="205.52" cy="254.03" r="3" fill="#0055ff"/>
  <circle cx="211.90" cy="246.30" r="3" fill="#0055ff"/>
  <circle cx="217.51" cy="246.96" r="3" fill="#0055ff"/>
  <circle cx="228.09" cy="257.81" r="3" fill="#0055ff"/>
  <circle cx="242.11" cy="280.10" r="3" fill="#0055ff"/>
  <circle cx="256.33" cy="299.83" r="3" fill="#0055ff"/>
  <circle cx="268.44" cy="306.53" r="3" fill="#0055ff"/>
  <circle cx="281.81" cy="317.50" r="3" fill="#0055ff"/>
  <circle cx="290.57" cy="327.16" r="3" fill="#0055ff"/>
  <circle cx="298.43" cy="335.25" r="3" fill="#0055ff"/>
  <circle cx="306.23" cy="340.29" r="3" fill="#0055ff"/>
  <circle cx="309.58" cy="335.07" r="3" fill="#0055ff"/>
  <circle cx="313.02" cy="330.71" r="3" fill="#0055ff"/>
  <circle cx="316.35" cy="327.85" r="3" fill="#0055ff"/>
  <circle cx="322.53" cy="327.78" r="3" fill="#0055ff"/>
  <circle cx="329.96" cy="339.58" r="3" fill="#0055ff"/>
  <circle cx="332.70" cy="343.92" r="3" fill="#0055ff"/>
  <circle cx="335.91" cy="346.98" r="3" fill="#0055ff"/>
  <circle cx="343.47" cy="349.03" r="3" fill="#0055ff"/>
  <circle cx="348.19" cy="353.30" r="3" fill="#0055ff"/>
  <circle cx="351.73" cy="357.93" r="3" fill="#0055ff"/>
  <circle cx="356.07" cy="359.40" r="3" fill="#0055ff"/>
  <circle cx="358.72" cy="360.77" r="3" fill="#0055ff"/>
  <circle cx="372.05" cy="341.04" r="3" fill="#0055ff"/>
  <circle cx="378.06" cy="332.80" r="3" fill="#0055ff"/>
  <circle cx="382.37" cy="333.20" r="3" fill="#0055ff"/>
  <circle cx="388.65" cy="325.03" r="3" fill="#0055ff"/>
  <circle cx="390.35" cy="323.99" r="3" fill="#0055ff"/>
  <circle cx="392.38" cy="320.40" r="3" fill="#0055ff"/>
  <circle cx="394.40" cy="317.43" r="3" fill="#0055ff"/>
  <circle cx="399.67" cy="306.20" r="3" fill="#0055ff"/>
  <circle cx="409.62" cy="305.45" r="3" fill="#0055ff"/>
  <circle cx="414.99" cy="304.11" r="3" fill="#0055ff"/>
  <circle cx="422.04" cy="305.67" r="3" fill="#0055ff"/>
  <circle cx="427.75" cy="307.25" r="3" fill="#0055ff"/>
  <circle cx="432.52" cy="295.05" r="3" fill="#0055ff"/>
  <circle cx="437.20" cy="288.65" r="3" fill="#0055ff"/>
  <circle cx="441.24" cy="275.89" r="3" fill="#0055ff"/>
  <circle cx="444.33" cy="277.85" r="3" fill="#0055ff"/>
  <circle cx="447.48" cy="279.53" r="3" fill="#0055ff"/>
  <circle cx="451.27" cy="284.33" r="3" fill="#0055ff"/>
  <circle cx="455.04" cy="288.73" r="3" fill="#0055ff"/>
  <circle cx="466.29" cy="311.02" r="3" fill="#0055ff"/>
  <circle cx="479.63" cy="328.13" r="3" fill="#0055ff"/>
  <circle cx="486.33" cy="324.15" r="3" fill="#0055ff"/>
  <circle cx="494.40" cy="313.11" r="3" fill="#0055ff"/>
  <circle cx="500.36" cy="307.41" r="3" fill="#0055ff"/>
  <circle cx="504.96" cy="303.67" r="3" fill="#0055ff"/>
  <circle cx="506.79" cy="302.67" r="3" fill="#0055ff"/>
  <circle cx="510.15" cy="303.67" r="3" fill="#0055ff"/>
  <circle cx="514.15" cy="301.24" r="3" fill="#0055ff"/>
  <circle cx="517.88" cy="292.94" r="3" fill="#0055ff"/>
  <circle cx="525.27" cy="271.58" r="3" fill="#0055ff"/>
  <circle cx="529.62" cy="255.33" r="3" fill="#0055ff"/>
  <circle cx="534.83" cy="247.82" r="3" fill="#0055ff"/>
  <circle cx="538.28" cy="245.64" r="3" fill="#0055ff"/>
  <circle cx="544.16" cy="229.58" r="3" fill="#0055ff"/>
  <circle cx="549.50" cy="218.09" r="3" fill="#0055ff"/>
  <circle cx="557.15" cy="193.18" r="3" fill="#0055ff"/>
  <circle cx="562.13" cy="187.52" r="3" fill="#0055ff"/>
  <line x1="562.13" y1="187.52" x2="562.13" y2="400" stroke="#ff6600" stroke-width="1" stroke-dasharray="2,2"/>
  <circle cx="562.13" cy="187.52" r="5" fill="#ff6600" stroke="#ffffff" stroke-width="1.5"/>
  <text x="562.13" y="435" transform="rotate(-90, 562.13, 435)" font-family="sans-serif" font-size="10" font-weight="bold" fill="#333333" text-anchor="end">La Caldera Quemada</text>
  <text x="562.13" y="179.52" font-family="sans-serif" font-size="9" fill="#ff6600" text-anchor="middle" font-weight="bold">329m</text>
  <circle cx="564.21" cy="187.83" r="3" fill="#0055ff"/>
  <circle cx="568.29" cy="199.10" r="3" fill="#0055ff"/>
  <circle cx="571.64" cy="205.51" r="3" fill="#0055ff"/>
  <circle cx="577.72" cy="214.98" r="3" fill="#0055ff"/>
  <circle cx="582.54" cy="221.63" r="3" fill="#0055ff"/>
  <circle cx="586.71" cy="222.51" r="3" fill="#0055ff"/>
  <circle cx="588.24" cy="222.25" r="3" fill="#0055ff"/>
  <circle cx="591.69" cy="229.05" r="3" fill="#0055ff"/>
  <circle cx="594.38" cy="234.84" r="3" fill="#0055ff"/>
  <line x1="594.38" y1="234.84" x2="594.38" y2="400" stroke="#ff6600" stroke-width="1" stroke-dasharray="2,2"/>
  <circle cx="594.38" cy="234.84" r="5" fill="#ff6600" stroke="#ffffff" stroke-width="1.5"/>
  <text x="594.38" y="435" transform="rotate(-90, 594.38, 435)" font-family="sans-serif" font-size="10" font-weight="bold" fill="#333333" text-anchor="end">Carretera Excavada En Lava</text>
  <text x="594.38" y="226.84" font-family="sans-serif" font-size="9" fill="#ff6600" text-anchor="middle" font-weight="bold">307m</text>
  <circle cx="596.24" cy="241.12" r="3" fill="#0055ff"/>
  <circle cx="598.72" cy="251.34" r="3" fill="#0055ff"/>
  <circle cx="605.79" cy="261.07" r="3" fill="#0055ff"/>
  <circle cx="611.33" cy="256.96" r="3" fill="#0055ff"/>
  <circle cx="613.71" cy="258.92" r="3" fill="#0055ff"/>
  <circle cx="619.67" cy="265.83" r="3" fill="#0055ff"/>
  <circle cx="624.29" cy="270.61" r="3" fill="#0055ff"/>
  <circle cx="628.63" cy="267.79" r="3" fill="#0055ff"/>
  <circle cx="633.79" cy="262.11" r="3" fill="#0055ff"/>
  <circle cx="643.95" cy="236.14" r="3" fill="#0055ff"/>
  <circle cx="651.72" cy="204.21" r="3" fill="#0055ff"/>
  <circle cx="657.16" cy="193.55" r="3" fill="#0055ff"/>
  <circle cx="662.86" cy="175.98" r="3" fill="#0055ff"/>
  <circle cx="669.12" cy="163.65" r="3" fill="#0055ff"/>
  <circle cx="679.06" cy="174.28" r="3" fill="#0055ff"/>
  <circle cx="682.75" cy="177.87" r="3" fill="#0055ff"/>
  <line x1="682.75" y1="177.87" x2="682.75" y2="400" stroke="#ff6600" stroke-width="1" stroke-dasharray="2,2"/>
  <circle cx="682.75" cy="177.87" r="5" fill="#ff6600" stroke="#ffffff" stroke-width="1.5"/>
  <text x="682.75" y="435" transform="rotate(-90, 682.75, 435)" font-family="sans-serif" font-size="10" font-weight="bold" fill="#333333" text-anchor="end">Valle De La Tranquilidad</text>
  <text x="682.75" y="169.87" font-family="sans-serif" font-size="9" fill="#ff6600" text-anchor="middle" font-weight="bold">333m</text>
  <circle cx="685.48" cy="175.54" r="3" fill="#0055ff"/>
  <circle cx="689.58" cy="170.78" r="3" fill="#0055ff"/>
  <circle cx="695.62" cy="165.94" r="3" fill="#0055ff"/>
  <circle cx="702.82" cy="148.56" r="3" fill="#0055ff"/>
  <circle cx="709.84" cy="141.36" r="3" fill="#0055ff"/>
  <circle cx="714.14" cy="141.10" r="3" fill="#0055ff"/>
  <circle cx="719.48" cy="137.53" r="3" fill="#0055ff"/>
  <circle cx="722.62" cy="136.40" r="3" fill="#0055ff"/>
  <circle cx="725.62" cy="133.94" r="3" fill="#0055ff"/>
  <circle cx="731.57" cy="134.40" r="3" fill="#0055ff"/>
  <circle cx="742.05" cy="118.59" r="3" fill="#0055ff"/>
  <circle cx="749.78" cy="115.24" r="3" fill="#0055ff"/>
  <circle cx="754.63" cy="128.26" r="3" fill="#0055ff"/>
  <circle cx="762.97" cy="132.90" r="3" fill="#0055ff"/>
  <line x1="762.97" y1="132.90" x2="762.97" y2="400" stroke="#ff6600" stroke-width="1" stroke-dasharray="2,2"/>
  <circle cx="762.97" cy="132.90" r="5" fill="#ff6600" stroke="#ffffff" stroke-width="1.5"/>
  <text x="762.97" y="435" transform="rotate(-90, 762.97, 435)" font-family="sans-serif" font-size="10" font-weight="bold" fill="#333333" text-anchor="end">Echadero de los Camellos</text>
  <text x="762.97" y="124.90" font-family="sans-serif" font-size="9" fill="#ff6600" text-anchor="middle" font-weight="bold">354m</text>
  <circle cx="771.92" cy="119.76" r="3" fill="#0055ff"/>
  <circle cx="786.15" cy="99.23" r="3" fill="#0055ff"/>
  <circle cx="794.41" cy="126.67" r="3" fill="#0055ff"/>
  <circle cx="799.71" cy="141.16" r="3" fill="#0055ff"/>
  <circle cx="822.27" cy="188.55" r="3" fill="#0055ff"/>
  <circle cx="830.64" cy="194.35" r="3" fill="#0055ff"/>
  <line x1="830.64" y1="194.35" x2="830.64" y2="400" stroke="#ff6600" stroke-width="1" stroke-dasharray="2,2"/>
  <circle cx="830.64" cy="194.35" r="5" fill="#ff6600" stroke="#ffffff" stroke-width="1.5"/>
  <text x="830.64" y="435" transform="rotate(-90, 830.64, 435)" font-family="sans-serif" font-size="10" font-weight="bold" fill="#333333" text-anchor="end">La Caldera De La Boca Del Infierno</text>
  <text x="830.64" y="186.35" font-family="sans-serif" font-size="9" fill="#ff6600" text-anchor="middle" font-weight="bold">326m</text>
  <circle cx="839.84" cy="203.46" r="3" fill="#0055ff"/>
  <circle cx="848.16" cy="205.73" r="3" fill="#0055ff"/>
  <circle cx="855.14" cy="197.41" r="3" fill="#0055ff"/>
  <circle cx="861.40" cy="193.40" r="3" fill="#0055ff"/>
  <circle cx="863.32" cy="197.72" r="3" fill="#0055ff"/>
  <circle cx="865.85" cy="196.00" r="3" fill="#0055ff"/>
  <circle cx="869.74" cy="183.84" r="3" fill="#0055ff"/>
  <circle cx="872.55" cy="188.49" r="3" fill="#0055ff"/>
  <circle cx="876.10" cy="190.76" r="3" fill="#0055ff"/>
  <circle cx="879.49" cy="182.78" r="3" fill="#0055ff"/>
  <circle cx="883.76" cy="172.24" r="3" fill="#0055ff"/>
  <circle cx="890.00" cy="158.29" r="3" fill="#0055ff"/>
</svg>
